<mxfile host="app.diagrams.net" modified="2021-02-23T22:13:08.511Z" agent="5.0 (Windows NT 6.3; Win64; x64) AppleWebKit/537.36 (KHTML, like Gecko) Chrome/88.0.4324.190 Safari/537.36" etag="DPN0nfogwgXsy_C0vT-v" version="14.2.9" type="github">
  <diagram id="mDXGSv0zrrx9h79AJLXz" name="Page-1">
    <mxGraphModel dx="868" dy="393" grid="1" gridSize="10" guides="1" tooltips="1" connect="1" arrows="1" fold="1" page="1" pageScale="1" pageWidth="850" pageHeight="1100" math="0" shadow="0">
      <root>
        <mxCell id="0" />
        <mxCell id="1" parent="0" />
        <mxCell id="8H6oDl0V0kuARWTHmhPm-1" value="ComputerMouse" style="swimlane;fontStyle=1;align=center;verticalAlign=top;childLayout=stackLayout;horizontal=1;startSize=26;horizontalStack=0;resizeParent=1;resizeParentMax=0;resizeLast=0;collapsible=1;marginBottom=0;" vertex="1" parent="1">
          <mxGeometry x="80" y="40" width="220" height="178" as="geometry" />
        </mxCell>
        <mxCell id="8H6oDl0V0kuARWTHmhPm-2" value="hasScrollWheel: boolean&#xa;mouseDriver: String&#xa;cursorPosition: Coordinates&#xa;" style="text;strokeColor=none;fillColor=none;align=left;verticalAlign=top;spacingLeft=4;spacingRight=4;overflow=hidden;rotatable=0;points=[[0,0.5],[1,0.5]];portConstraint=eastwest;" vertex="1" parent="8H6oDl0V0kuARWTHmhPm-1">
          <mxGeometry y="26" width="220" height="74" as="geometry" />
        </mxCell>
        <mxCell id="8H6oDl0V0kuARWTHmhPm-3" value="" style="line;strokeWidth=1;fillColor=none;align=left;verticalAlign=middle;spacingTop=-1;spacingLeft=3;spacingRight=3;rotatable=0;labelPosition=right;points=[];portConstraint=eastwest;" vertex="1" parent="8H6oDl0V0kuARWTHmhPm-1">
          <mxGeometry y="100" width="220" height="8" as="geometry" />
        </mxCell>
        <mxCell id="8H6oDl0V0kuARWTHmhPm-4" value="getDriverName(): String&#xa;scrollUp(): int&#xa;scrollDown(): int&#xa;moveCursor(Coordinates): Coordinates" style="text;strokeColor=none;fillColor=none;align=left;verticalAlign=top;spacingLeft=4;spacingRight=4;overflow=hidden;rotatable=0;points=[[0,0.5],[1,0.5]];portConstraint=eastwest;" vertex="1" parent="8H6oDl0V0kuARWTHmhPm-1">
          <mxGeometry y="108" width="220" height="70" as="geometry" />
        </mxCell>
      </root>
    </mxGraphModel>
  </diagram>
</mxfile>
